<svg width="16" height="16" viewBox="0 0 16 16" fill="none" xmlns="http://www.w3.org/2000/svg">
<path d="M3.49265 0.255884C2.86669 -0.0900969 2.13173 -0.0820974 1.50977 0.260883L8.79935 6.9855L11.2482 4.53664L3.49265 0.255884Z" fill="white"/>
<path d="M0.779984 0.948242C0.601994 1.23923 0.5 1.57221 0.5 1.92519V14.0705C0.5 14.4125 0.592995 14.7385 0.760985 15.0234L8.09157 7.69286L0.779984 0.948242Z" fill="white"/>
<path d="M14.4939 6.32799L12.1581 5.03906L9.5332 7.66292L12.75 10.6298L14.4949 9.66681C15.1229 9.31883 15.4989 8.69486 15.4989 7.9969C15.4979 7.29894 15.1229 6.67497 14.4939 6.32799Z" fill="white"/>
<path d="M8.82715 8.37109L1.47656 15.7217C1.79554 15.9037 2.14552 15.9997 2.4975 15.9997C2.83749 15.9997 3.17947 15.9137 3.49245 15.7407L11.829 11.1399L8.82715 8.37109Z" fill="white"/>
</svg>
